HIERARCHY
ROOT Root
{
  OFFSET 0.0 0.0 0.0
  CHANNELS 6 Xposition Yposition Zposition Zrotation Yrotation Xrotation
  JOINT Hips
  {
    OFFSET 0.0 100.0 0.0
    CHANNELS 6 Xposition Yposition Zposition Zrotation Yrotation Xrotation
    JOINT Spine1
    {
      OFFSET 5.003913 -0.037094 -0.013727
      CHANNELS 3 Zrotation Yrotation Xrotation
      JOINT Spine2
      {
        OFFSET 7.125363 -1e-06 0.0
        CHANNELS 3 Zrotation Yrotation Xrotation
        JOINT Chest
        {
          OFFSET 7.594027 1e-06 0.0
          CHANNELS 3 Zrotation Yrotation Xrotation
          JOINT Neck1
          {
            OFFSET 26.313086 -0.460272 -0.181672
            CHANNELS 3 Zrotation Yrotation Xrotation
            JOINT Neck2
            {
              OFFSET 8.045911 0.0 0.0
              CHANNELS 3 Zrotation Yrotation Xrotation
              JOINT Head
              {
                OFFSET 6.432774 0.0 0.0
                CHANNELS 3 Zrotation Yrotation Xrotation
                JOINT HeadEnd
                {
                  OFFSET 16.169773 0.06451 0.00362
                  CHANNELS 3 Zrotation Yrotation Xrotation
                }
                JOINT Jaw
                {
                  OFFSET 0.108741 3.12938 0.002639
                  CHANNELS 3 Zrotation Yrotation Xrotation
                }
                JOINT LeftEye
                {
                  OFFSET 4.45173 8.166359 3.206392
                  CHANNELS 3 Zrotation Yrotation Xrotation
                }
                JOINT RightEye
                {
                  OFFSET 4.436895 8.135758 -3.222429
                  CHANNELS 3 Zrotation Yrotation Xrotation
                }
              }
            }
          }
          JOINT LeftShoulder
          {
            OFFSET 23.218927 5.195579 1.621656
            CHANNELS 3 Zrotation Yrotation Xrotation
            JOINT LeftArm
            {
              OFFSET 15.902118 2e-06 -2e-06
              CHANNELS 3 Zrotation Yrotation Xrotation
              JOINT LeftForeArm
              {
                OFFSET 28.739307 0.0 -1e-06
                CHANNELS 3 Zrotation Yrotation Xrotation
                JOINT LeftHand
                {
                  OFFSET 27.093981 -4e-06 0.0
                  CHANNELS 3 Zrotation Yrotation Xrotation
                  JOINT LeftHandThumb1
                  {
                    OFFSET 2.276781 3.380274 0.83384
                    CHANNELS 3 Zrotation Yrotation Xrotation
                    JOINT LeftHandThumb2
                    {
                      OFFSET 4.705309 -1e-06 -1e-06
                      CHANNELS 3 Zrotation Yrotation Xrotation
                      JOINT LeftHandThumb3
                      {
                        OFFSET 2.798515 0.0 3e-06
                        CHANNELS 3 Zrotation Yrotation Xrotation
                        JOINT LeftHandThumbEnd
                        {
                          OFFSET 3.180793 4e-06 -4e-06
                          CHANNELS 3 Zrotation Yrotation Xrotation
                        }
                      }
                    }
                  }
                  JOINT LeftHandIndex1
                  {
                    OFFSET 3.247786 2.352677 0.137192
                    CHANNELS 3 Zrotation Yrotation Xrotation
                    JOINT LeftHandIndex2
                    {
                      OFFSET 6.367095 1e-06 0.0
                      CHANNELS 3 Zrotation Yrotation Xrotation
                      JOINT LeftHandIndex3
                      {
                        OFFSET 3.662364 0.0 0.0
                        CHANNELS 3 Zrotation Yrotation Xrotation
                        JOINT LeftHandIndex4
                        {
                          OFFSET 2.329242 4e-06 -4e-06
                          CHANNELS 3 Zrotation Yrotation Xrotation
                          JOINT LeftHandIndexEnd
                          {
                            OFFSET 2.767823 1e-06 0.0
                            CHANNELS 3 Zrotation Yrotation Xrotation
                          }
                        }
                      }
                    }
                  }
                  JOINT LeftHandMiddle1
                  {
                    OFFSET 3.163612 0.945023 -0.406112
                    CHANNELS 3 Zrotation Yrotation Xrotation
                    JOINT LeftHandMiddle2
                    {
                      OFFSET 6.276789 3e-06 0.0
                      CHANNELS 3 Zrotation Yrotation Xrotation
                      JOINT LeftHandMiddle3
                      {
                        OFFSET 4.35652 -1e-06 4e-06
                        CHANNELS 3 Zrotation Yrotation Xrotation
                        JOINT LeftHandMiddle4
                        {
                          OFFSET 2.996877 0.0 8e-06
                          CHANNELS 3 Zrotation Yrotation Xrotation
                          JOINT LeftHandMiddleEnd
                          {
                            OFFSET 2.323256 3e-06 -4e-06
                            CHANNELS 3 Zrotation Yrotation Xrotation
                          }
                        }
                      }
                    }
                  }
                  JOINT LeftHandRing1
                  {
                    OFFSET 2.882606 -0.309162 0.107445
                    CHANNELS 3 Zrotation Yrotation Xrotation
                    JOINT LeftHandRing2
                    {
                      OFFSET 6.033198 0.0 4e-06
                      CHANNELS 3 Zrotation Yrotation Xrotation
                      JOINT LeftHandRing3
                      {
                        OFFSET 4.350578 3e-06 0.0
                        CHANNELS 3 Zrotation Yrotation Xrotation
                        JOINT LeftHandRing4
                        {
                          OFFSET 2.651321 2e-06 -7e-06
                          CHANNELS 3 Zrotation Yrotation Xrotation
                          JOINT LeftHandRingEnd
                          {
                            OFFSET 1.937663 1e-06 -4e-06
                            CHANNELS 3 Zrotation Yrotation Xrotation
                          }
                        }
                      }
                    }
                  }
                  JOINT LeftHandPinky1
                  {
                    OFFSET 2.865315 -1.525436 0.575687
                    CHANNELS 3 Zrotation Yrotation Xrotation
                    JOINT LeftHandPinky2
                    {
                      OFFSET 5.54936 1e-06 -8e-06
                      CHANNELS 3 Zrotation Yrotation Xrotation
                      JOINT LeftHandPinky3
                      {
                        OFFSET 3.070974 0.0 -4e-06
                        CHANNELS 3 Zrotation Yrotation Xrotation
                        JOINT LeftHandPinky4
                        {
                          OFFSET 1.549672 1e-06 0.0
                          CHANNELS 3 Zrotation Yrotation Xrotation
                          JOINT LeftHandPinkyEnd
                          {
                            OFFSET 1.952123 0.0 0.0
                            CHANNELS 3 Zrotation Yrotation Xrotation
                          }
                        }
                      }
                    }
                  }
                }
              }
            }
          }
          JOINT RightShoulder
          {
            OFFSET 23.161716 5.296122 -1.380114
            CHANNELS 3 Zrotation Yrotation Xrotation
            JOINT RightArm
            {
              OFFSET -16.027195 -2e-06 1.1e-05
              CHANNELS 3 Zrotation Yrotation Xrotation
              JOINT RightForeArm
              {
                OFFSET -28.736639 4e-06 2e-06
                CHANNELS 3 Zrotation Yrotation Xrotation
                JOINT RightHand
                {
                  OFFSET -27.133619 6e-06 0.0
                  CHANNELS 3 Zrotation Yrotation Xrotation
                  JOINT RightHandThumb1
                  {
                    OFFSET -2.274328 -3.351035 -0.83067
                    CHANNELS 3 Zrotation Yrotation Xrotation
                    JOINT RightHandThumb2
                    {
                      OFFSET -4.703594 -3e-06 2e-06
                      CHANNELS 3 Zrotation Yrotation Xrotation
                      JOINT RightHandThumb3
                      {
                        OFFSET -2.794935 -4e-06 -3e-06
                        CHANNELS 3 Zrotation Yrotation Xrotation
                        JOINT RightHandThumbEnd
                        {
                          OFFSET -3.183852 4e-06 1e-06
                          CHANNELS 3 Zrotation Yrotation Xrotation
                        }
                      }
                    }
                  }
                  JOINT RightHandIndex1
                  {
                    OFFSET -3.253496 -2.33755 -0.127667
                    CHANNELS 3 Zrotation Yrotation Xrotation
                    JOINT RightHandIndex2
                    {
                      OFFSET -6.344434 0.0 0.0
                      CHANNELS 3 Zrotation Yrotation Xrotation
                      JOINT RightHandIndex3
                      {
                        OFFSET -3.654871 0.0 -8e-06
                        CHANNELS 3 Zrotation Yrotation Xrotation
                        JOINT RightHandIndex4
                        {
                          OFFSET -2.327586 -1e-06 0.0
                          CHANNELS 3 Zrotation Yrotation Xrotation
                          JOINT RightHandIndexEnd
                          {
                            OFFSET -2.770001 3e-06 8e-06
                            CHANNELS 3 Zrotation Yrotation Xrotation
                          }
                        }
                      }
                    }
                  }
                  JOINT RightHandMiddle1
                  {
                    OFFSET -3.168223 -0.944764 0.411762
                    CHANNELS 3 Zrotation Yrotation Xrotation
                    JOINT RightHandMiddle2
                    {
                      OFFSET -6.266691 -1e-06 -4e-06
                      CHANNELS 3 Zrotation Yrotation Xrotation
                      JOINT RightHandMiddle3
                      {
                        OFFSET -4.348901 0.0 0.0
                        CHANNELS 3 Zrotation Yrotation Xrotation
                        JOINT RightHandMiddle4
                        {
                          OFFSET -3.00024 2e-06 -4e-06
                          CHANNELS 3 Zrotation Yrotation Xrotation
                          JOINT RightHandMiddleEnd
                          {
                            OFFSET -2.321477 -4e-06 -4e-06
                            CHANNELS 3 Zrotation Yrotation Xrotation
                          }
                        }
                      }
                    }
                  }
                  JOINT RightHandRing1
                  {
                    OFFSET -2.885654 0.293261 -0.119232
                    CHANNELS 3 Zrotation Yrotation Xrotation
                    JOINT RightHandRing2
                    {
                      OFFSET -6.032835 -1e-06 -4e-06
                      CHANNELS 3 Zrotation Yrotation Xrotation
                      JOINT RightHandRing3
                      {
                        OFFSET -4.33881 0.0 -4e-06
                        CHANNELS 3 Zrotation Yrotation Xrotation
                        JOINT RightHandRing4
                        {
                          OFFSET -2.654903 -4e-06 -4e-06
                          CHANNELS 3 Zrotation Yrotation Xrotation
                          JOINT RightHandRingEnd
                          {
                            OFFSET -1.935122 0.0 4e-06
                            CHANNELS 3 Zrotation Yrotation Xrotation
                          }
                        }
                      }
                    }
                  }
                  JOINT RightHandPinky1
                  {
                    OFFSET -2.866241 1.503904 -0.60527
                    CHANNELS 3 Zrotation Yrotation Xrotation
                    JOINT RightHandPinky2
                    {
                      OFFSET -5.553177 -2e-06 0.0
                      CHANNELS 3 Zrotation Yrotation Xrotation
                      JOINT RightHandPinky3
                      {
                        OFFSET -3.062664 -1e-06 -4e-06
                        CHANNELS 3 Zrotation Yrotation Xrotation
                        JOINT RightHandPinky4
                        {
                          OFFSET -1.546529 2e-06 4e-06
                          CHANNELS 3 Zrotation Yrotation Xrotation
                          JOINT RightHandPinkyEnd
                          {
                            OFFSET -1.952341 0.0 -4e-06
                            CHANNELS 3 Zrotation Yrotation Xrotation
                          }
                        }
                      }
                    }
                  }
                }
              }
            }
          }
        }
      }
    }
    JOINT LeftLeg
    {
      OFFSET -8.443107 2.567604 10.043214
      CHANNELS 3 Zrotation Yrotation Xrotation
      JOINT LeftShin
      {
        OFFSET 43.229198 1e-06 -1e-06
        CHANNELS 3 Zrotation Yrotation Xrotation
        JOINT LeftFoot
        {
          OFFSET 42.298611 1e-06 1e-06
          CHANNELS 3 Zrotation Yrotation Xrotation
          JOINT LeftToeBase
          {
            OFFSET 14.165858 1e-06 0.0
            CHANNELS 3 Zrotation Yrotation Xrotation
            JOINT LeftToeEnd
            {
              OFFSET 6.7141 -0.234461 0.0
              CHANNELS 3 Zrotation Yrotation Xrotation
            }
          }
        }
      }
    }
    JOINT RightLeg
    {
      OFFSET -8.303923 2.592729 -10.047278
      CHANNELS 3 Zrotation Yrotation Xrotation
      JOINT RightShin
      {
        OFFSET -43.369682 0.0 1e-06
        CHANNELS 3 Zrotation Yrotation Xrotation
        JOINT RightFoot
        {
          OFFSET -42.260784 4e-06 2e-06
          CHANNELS 3 Zrotation Yrotation Xrotation
          JOINT RightToeBase
          {
            OFFSET -14.222245 -2e-06 -1e-06
            CHANNELS 3 Zrotation Yrotation Xrotation
            JOINT RightToeEnd
            {
              OFFSET -6.660062 0.232574 -2e-06
              CHANNELS 3 Zrotation Yrotation Xrotation
            }
          }
        }
      }
    }
  }
}
MOTION
Frames: 4
Frame Time: 0.03333333333333333
0.0 0.0 0.0 0.0 -0.0 0.0 -7.034165 20.474428 118.353928 112.849327 -79.529167 70.599838 4.375893 -3.515455 -0.775622 -9.552818 -1.01726 0.353367 12.250883 -3.539535 -1.864338 19.566063 7.619157 3.233362 -2.962937 -0.223347 -2.458177 -44.284542 2.755449 -4.534781 5e-06 0.0 -0.0 -0.236598 -0.15196 0.153576 0.061954 -0.223281 0.356323 0.134185 -0.07421 -0.063807 -60.633781 -64.418938 74.960922 25.596811 -28.856644 -1.182092 108.80024 -2.631768 2.501709 32.393559 68.412552 44.226109 17.636633 -26.322731 52.411194 -19.466654 -14.395594 29.410378 -0.0 -8.774822 -3e-06 15.21534 -18.598154 6.759671 -0.609776 -1.795654 -3.889327 -4.807088 -11.04681 -2.937848 3e-06 -20.976015 2e-06 -5.019971 -25.033556 -4.03188 6e-06 -1e-06 0.0 -10.634533 -5.686972 -3.565588 10.57327 -17.922947 -3.113898 2e-06 -13.821211 3e-06 -0.501778 -31.181505 -4.027017 -10.99265 -60.229046 7.424524 -13.982714 -7.150198 -2.875041 13.772727 -8.401489 -3.218237 0.347732 -34.211555 0.771655 -0.963029 -17.73337 2.621019 0.0 0.0 0.0 -17.346416 -20.095213 -4.20178 21.757555 -1.638375 3.866429 0.0 -6.338823 1e-06 -1.697588 -22.591742 -6.194006 -0.0 -4e-06 -1e-06 135.719208 -62.479088 54.865047 34.116413 -51.580372 5.6589 114.571411 0.280321 2.917336 55.407108 70.270958 89.388847 22.182121 -20.375904 49.933327 -16.701815 -16.743525 28.47654 -1e-06 -12.6906 -1e-06 15.987122 -18.387579 2.451638 -0.10592 -1.513855 -4.275883 -5.039041 -5.612874 -2.953557 3e-06 -11.020526 -2e-06 -6.111297 -15.895338 -3.840472 0.0 1e-06 -1e-06 -10.283373 -5.680289 -4.341842 11.028294 -11.302406 -2.372632 -1.384268 -14.238585 -6.320124 -0.625437 -26.924198 -3.827604 -3.409834 -50.762218 -4.878313 -13.708525 -7.363479 -3.720942 18.141146 -14.05274 -3.242674 5e-06 -18.787275 -2e-06 -0.429713 -8.456043 2.555504 0.0 -0.0 1e-06 -15.923536 -20.094486 -5.473588 30.419214 -7.190826 1.735926 3e-06 -8.162927 -0.0 -1.861902 -22.861479 -6.167942 0.0 -3e-06 -1e-06 159.837601 -16.061237 -46.471184 54.772717 -23.167429 19.297598 -80.664772 30.589764 -7.29671 -11.217644 1.096855 2.535609 -0.999998 -0.0 -0.0 -6.53325 -24.224218 -57.825275 33.60112 -23.158108 32.7994 -105.898689 20.342546 -17.63224 -9.219819 0.451066 1.959855 -1.000001 -0.0 0.0 
0.0 0.0 0.0 0.0 -0.0 0.0 -7.281282 20.330685 118.234459 114.526901 -80.324577 69.616333 4.68683 -3.444114 -0.861269 -9.581003 -1.135145 0.180962 12.457787 -3.227966 -1.884485 20.621433 7.683081 3.211938 -3.058972 -0.047849 -2.566142 -44.03149 2.619138 -4.543245 6e-06 -0.0 0.0 -0.261667 -0.121603 0.117069 0.099258 -0.251236 0.341789 0.12062 0.017942 -0.117779 -59.527782 -64.19529 74.379616 23.50778 -27.831493 -1.337129 111.28167 -2.728281 2.552933 33.08215 68.790848 44.435371 17.636633 -26.322733 52.411205 -19.466661 -14.395598 29.410395 -2e-06 -8.774822 -2e-06 15.224054 -18.399088 6.755567 -0.609776 -1.795654 -3.889328 -4.807089 -11.046813 -2.93785 5e-06 -20.976019 1e-06 -5.01997 -25.033558 -4.031883 6e-06 -1e-06 -1e-06 -10.634535 -5.68697 -3.565588 10.573275 -17.922951 -3.113901 3e-06 -13.821209 2e-06 -0.501778 -31.181505 -4.027015 -10.606259 -60.345337 7.302359 -13.982716 -7.150198 -2.875044 13.772728 -8.401489 -3.21824 0.347734 -34.211555 0.771655 -0.963028 -17.73337 2.62102 1e-06 0.0 0.0 -17.346416 -20.095217 -4.201783 21.757557 -1.638375 3.866428 1e-06 -6.338825 0.0 -1.697589 -22.591742 -6.194005 1e-06 -5e-06 -2e-06 136.096268 -61.279808 54.907902 33.178455 -52.819202 5.559956 117.779869 0.045795 2.821274 55.686565 69.023415 91.033188 22.182117 -20.375898 49.933331 -16.701822 -16.74353 28.47654 -2e-06 -12.690604 -1e-06 15.842139 -18.364605 2.515948 -0.10592 -1.513858 -4.275883 -5.039041 -5.612873 -2.953557 5e-06 -11.020527 -2e-06 -6.111297 -15.895339 -3.840473 0.0 1e-06 -1e-06 -10.283372 -5.68029 -4.341841 11.028296 -11.302411 -2.372633 -1.384269 -14.238588 -6.320124 -0.625438 -26.924202 -3.827604 -3.631348 -50.806938 -4.702714 -13.708528 -7.363479 -3.720941 18.141155 -14.052745 -3.242677 6e-06 -18.787275 -3e-06 -0.429711 -8.456047 2.555504 0.0 0.0 1e-06 -15.923536 -20.094496 -5.473588 30.419218 -7.190829 1.735925 3e-06 -8.16293 -1e-06 -1.861902 -22.861479 -6.167943 1e-06 -3e-06 -2e-06 161.356277 -15.35251 -47.61684 50.204247 -22.131424 21.477837 -80.733505 30.968201 -7.338134 -11.265143 1.091227 2.469414 -0.999999 0.0 1e-06 -7.101171 -24.122387 -60.515587 33.308544 -24.934309 34.832726 -107.795235 19.869827 -17.575773 -9.29605 0.475899 1.940969 -1.000001 0.0 0.0 
0.0 0.0 0.0 0.0 -0.0 0.0 -7.544883 20.114697 118.02359 115.753784 -80.872887 68.762505 4.949674 -3.281863 -0.888379 -9.472903 -0.979793 0.152517 12.75444 -3.306303 -1.964247 21.448013 7.918539 3.213336 -3.01869 -0.250183 -2.523403 -44.069206 2.579371 -4.567472 5e-06 0.0 1e-06 -0.245727 -0.191413 0.154952 0.219354 -0.335846 0.406596 0.218312 -0.035872 -0.111729 -59.063099 -64.077339 73.94928 21.417366 -26.827984 -0.868075 113.630638 -2.224312 2.180122 33.597691 68.50312 44.495358 17.636625 -26.322729 52.41119 -19.46666 -14.395597 29.410393 -1e-06 -8.774821 -3e-06 15.159397 -18.478788 6.718949 -0.609776 -1.795655 -3.889328 -4.807088 -11.046809 -2.937849 6e-06 -20.976015 1e-06 -5.019968 -25.033552 -4.031883 6e-06 -1e-06 1e-06 -10.634533 -5.686971 -3.565586 10.573275 -17.922951 -3.113901 3e-06 -13.821205 1e-06 -0.501775 -31.181501 -4.027017 -10.867689 -60.360901 7.267469 -13.982713 -7.150199 -2.875042 13.77273 -8.40149 -3.218243 0.347736 -34.211544 0.771653 -0.963028 -17.733368 2.62102 -0.0 -0.0 -0.0 -17.346416 -20.095217 -4.201781 21.757557 -1.638376 3.866428 2e-06 -6.338823 0.0 -1.697587 -22.591743 -6.194006 -0.0 -5e-06 -3e-06 135.930588 -60.129196 55.544724 33.088169 -53.40464 5.481815 120.509903 0.098218 3.236471 54.447857 68.583397 91.173714 22.182121 -20.375895 49.933319 -16.701815 -16.743528 28.47653 -2e-06 -12.690603 -2e-06 16.158092 -18.391384 2.41287 -0.10592 -1.513856 -4.275882 -5.039042 -5.612873 -2.953556 4e-06 -11.020523 -2e-06 -6.1113 -15.895334 -3.840472 -0.0 1e-06 -1e-06 -10.283371 -5.680287 -4.341839 11.028296 -11.302409 -2.372632 -1.384269 -14.238581 -6.320123 -0.625439 -26.924192 -3.827601 -3.720987 -51.058128 -4.612616 -13.708527 -7.363479 -3.720939 18.141151 -14.052738 -3.242672 5e-06 -18.787273 -2e-06 -0.429711 -8.456043 2.555503 0.0 1e-06 1e-06 -15.923536 -20.094484 -5.473584 30.419218 -7.190827 1.735927 2e-06 -8.162926 0.0 -1.861904 -22.861469 -6.167942 -0.0 -3e-06 -1e-06 163.727478 -14.635112 -48.356136 44.765633 -19.679422 23.647909 -78.869797 32.313671 -7.312182 -11.61071 1.122349 2.371608 -0.999999 -0.0 1e-06 -7.61164 -24.038582 -62.328285 33.445267 -26.547543 36.09391 -109.729607 19.570187 -17.466484 -10.168032 0.495809 1.902769 -1.000004 0.0 -0.0 
0.0 0.0 0.0 0.0 -0.0 0.0 -7.700998 19.867504 117.898262 117.615875 -81.457893 67.333954 4.970586 -3.211154 -0.90282 -9.561707 -1.012106 -0.007852 13.090108 -3.17477 -1.933802 22.272287 8.098108 3.269582 -3.074325 -0.131023 -2.334994 -43.846466 2.348513 -4.544803 6e-06 -0.0 1e-06 -0.258851 -0.117922 0.105114 0.163 -0.276365 0.344875 0.136852 0.055993 -0.143787 -58.477428 -64.060356 73.866409 20.000296 -26.085533 -1.256629 115.708969 -1.841725 1.929382 33.024239 68.064629 43.428215 17.636627 -26.322733 52.411205 -19.466663 -14.395598 29.410395 -2e-06 -8.774822 -4e-06 15.310953 -18.416599 6.58929 -0.609776 -1.795651 -3.889329 -4.807088 -11.046814 -2.937852 7e-06 -20.976019 0.0 -5.019969 -25.03356 -4.031882 6e-06 -0.0 1e-06 -10.634535 -5.686968 -3.565588 10.573277 -17.922953 -3.113902 4e-06 -13.821206 0.0 -0.501774 -31.181505 -4.027015 -10.477122 -60.499119 7.129054 -13.982714 -7.150197 -2.875043 13.772731 -8.401495 -3.21824 0.347738 -34.211544 0.771652 -0.963028 -17.733366 2.62102 1e-06 -0.0 1e-06 -17.346416 -20.095213 -4.201783 21.757557 -1.638379 3.866427 2e-06 -6.338822 1e-06 -1.697587 -22.591745 -6.194007 -0.0 -6e-06 -3e-06 135.914963 -59.138195 55.828442 32.810577 -54.291008 5.511872 122.731644 -0.136636 3.094539 54.205524 67.315506 92.410866 22.182116 -20.37591 49.93335 -16.701818 -16.743532 28.476545 -2e-06 -12.690603 0.0 16.167849 -18.398966 2.502677 -0.105919 -1.513856 -4.275884 -5.039043 -5.612874 -2.953558 4e-06 -11.020527 -2e-06 -6.111298 -15.895338 -3.840473 -0.0 1e-06 -1e-06 -10.283372 -5.680289 -4.341843 11.028296 -11.302406 -2.372633 -1.384268 -14.238585 -6.320125 -0.625437 -26.9242 -3.827604 -3.940386 -51.228085 -4.410754 -13.708526 -7.363478 -3.720942 18.141153 -14.052741 -3.242676 5e-06 -18.787273 -2e-06 -0.429712 -8.456043 2.555504 0.0 2e-06 -0.0 -15.923536 -20.094486 -5.473591 30.419222 -7.190829 1.735923 1e-06 -8.162927 1e-06 -1.861902 -22.861473 -6.167944 -1e-06 -3e-06 -1e-06 164.830246 -14.777459 -49.382484 41.232582 -18.878952 25.393261 -76.821442 32.620029 -7.689233 -11.260147 1.105269 2.413248 -0.999999 -0.0 -0.0 -8.044716 -24.139946 -64.769264 33.094967 -28.068979 37.908409 -110.866966 19.378315 -17.478199 -10.322655 0.513942 1.879315 -1.000002 0.0 0.0 
